<svg width="22" height="29" viewBox="0 0 22 29" fill="none" xmlns="http://www.w3.org/2000/svg">
<path d="M19 9.66668H17.6666V7.00001C17.6666 3.32001 14.68 0.333344 11 0.333344C7.31998 0.333344 4.33331 3.32001 4.33331 7.00001V9.66668H2.99998C1.53331 9.66668 0.333313 10.8667 0.333313 12.3333V25.6667C0.333313 27.1333 1.53331 28.3333 2.99998 28.3333H19C20.4666 28.3333 21.6666 27.1333 21.6666 25.6667V12.3333C21.6666 10.8667 20.4666 9.66668 19 9.66668ZM11 21.6667C9.53331 21.6667 8.33331 20.4667 8.33331 19C8.33331 17.5333 9.53331 16.3333 11 16.3333C12.4666 16.3333 13.6666 17.5333 13.6666 19C13.6666 20.4667 12.4666 21.6667 11 21.6667ZM15.1333 9.66668H6.86665V7.00001C6.86665 4.72001 8.71998 2.86668 11 2.86668C13.28 2.86668 15.1333 4.72001 15.1333 7.00001V9.66668Z" fill="#00FF0A" fill-opacity="0.75"/>
</svg>
